<svg width="286" height="286" xmlns="http://www.w3.org/2000/svg" xmlns:xlink="http://www.w3.org/1999/xlink" overflow="hidden"><defs><clipPath id="clip0"><rect x="497" y="217" width="286" height="286"/></clipPath></defs><g clip-path="url(#clip0)" transform="translate(-497 -217)"><path d="M511.5 360.5C511.5 289.255 569.255 231.5 640.5 231.5 711.745 231.5 769.5 289.255 769.5 360.5 769.5 431.745 711.745 489.5 640.5 489.5 569.255 489.5 511.5 431.745 511.5 360.5Z" stroke="#000000" stroke-width="26.6667" stroke-miterlimit="8" fill="none" fill-rule="evenodd"/><path d="M501.5 360.5C501.5 283.732 563.732 221.5 640.5 221.5 717.268 221.5 779.5 283.732 779.5 360.5 779.5 437.268 717.268 499.5 640.5 499.5 563.732 499.5 501.5 437.268 501.5 360.5Z" stroke="#000000" stroke-width="6.66667" stroke-miterlimit="8" fill="none" fill-rule="evenodd"/><path d="M559.5 360.5C559.5 315.765 595.765 279.5 640.5 279.5 685.235 279.5 721.5 315.765 721.5 360.5 721.5 405.235 685.235 441.5 640.5 441.5 595.765 441.5 559.5 405.235 559.5 360.5Z" stroke="#767171" stroke-width="13.3333" stroke-miterlimit="8" fill="none" fill-rule="evenodd"/><path d="M640.5 279.5 640.5 441.882" stroke="#767171" stroke-width="6.66667" stroke-miterlimit="8" fill="none" fill-rule="evenodd"/><path d="M559.5 360.5 721.882 360.5" stroke="#767171" stroke-width="6.66667" stroke-miterlimit="8" fill="none" fill-rule="evenodd"/><path d="M583.5 303.5 583.5 418.321" stroke="#767171" stroke-width="6.66667" stroke-miterlimit="8" fill="none" fill-rule="evenodd"/><path d="M697.5 303.5 697.5 418.321" stroke="#767171" stroke-width="6.66667" stroke-miterlimit="8" fill="none" fill-rule="evenodd"/><path d="M583.5 303.5 698.321 303.5" stroke="#767171" stroke-width="6.66667" stroke-miterlimit="8" fill="none" fill-rule="evenodd"/><path d="M583.5 417.5 698.321 417.5" stroke="#767171" stroke-width="6.66667" stroke-miterlimit="8" fill="none" fill-rule="evenodd"/><path d="M611.5 279.5 611.5 433.691" stroke="#767171" stroke-width="6.66667" stroke-miterlimit="8" fill="none" fill-rule="evenodd"/><path d="M669.5 283.5 669.5 437.691" stroke="#767171" stroke-width="6.66667" stroke-miterlimit="8" fill="none" fill-rule="evenodd"/><path d="M713.691 389.5 559.5 389.5" stroke="#767171" stroke-width="6.66667" stroke-miterlimit="8" fill="none" fill-rule="evenodd"/><path d="M713.691 331.5 559.5 331.5" stroke="#767171" stroke-width="6.66667" stroke-miterlimit="8" fill="none" fill-rule="evenodd"/></g></svg>