<svg width="285" height="285" xmlns="http://www.w3.org/2000/svg" xmlns:xlink="http://www.w3.org/1999/xlink" overflow="hidden"><defs><clipPath id="clip0"><rect x="944" y="25" width="285" height="285"/></clipPath></defs><g clip-path="url(#clip0)" transform="translate(-944 -25)"><path d="M1086.5 299C1013.87 299 955 240.125 955 167.5 955 94.8746 1013.87 36 1086.5 36 1159.13 36 1218 94.8746 1218 167.5 1218 240.125 1159.13 299 1086.5 299Z" stroke="#7F7F7F" stroke-width="20" stroke-miterlimit="8" fill="none" fill-rule="evenodd"/><path d="M1039 255.5C1017.18 255.5 999.5 237.815 999.5 216 999.5 194.185 1017.18 176.5 1039 176.5 1060.82 176.5 1078.5 194.185 1078.5 216 1078.5 237.815 1060.82 255.5 1039 255.5Z" stroke="#AFABAB" stroke-width="10.6667" stroke-miterlimit="8" fill="#AFABAB" fill-rule="evenodd"/><path d="M1039 159.5C1017.18 159.5 999.5 141.815 999.5 120 999.5 98.1848 1017.18 80.5 1039 80.5 1060.82 80.5 1078.5 98.1848 1078.5 120 1078.5 141.815 1060.82 159.5 1039 159.5Z" stroke="#AFABAB" stroke-width="10.6667" stroke-miterlimit="8" fill="none" fill-rule="evenodd"/><path d="M1134 159.5C1112.18 159.5 1094.5 141.815 1094.5 120 1094.5 98.1848 1112.18 80.5 1134 80.5 1155.82 80.5 1173.5 98.1848 1173.5 120 1173.5 141.815 1155.82 159.5 1134 159.5Z" stroke="#AFABAB" stroke-width="10.6667" stroke-miterlimit="8" fill="none" fill-rule="evenodd"/><path d="M1134 254.5C1112.18 254.5 1094.5 236.815 1094.5 215 1094.5 193.185 1112.18 175.5 1134 175.5 1155.82 175.5 1173.5 193.185 1173.5 215 1173.5 236.815 1155.82 254.5 1134 254.5Z" stroke="#AFABAB" stroke-width="10.6667" stroke-miterlimit="8" fill="none" fill-rule="evenodd"/><path d="M999.5 216C999.5 194.185 1017.18 176.5 1039 176.5 1060.82 176.5 1078.5 194.185 1078.5 216 1078.5 237.815 1060.82 255.5 1039 255.5 1028.58 255.5 1018.57 251.38 1011.18 244.037" stroke="#0D0D0D" stroke-width="10.6667" stroke-miterlimit="8" fill="none" fill-rule="evenodd"/><path d="M1106.35 186.364C1121.78 170.939 1146.78 170.939 1162.21 186.364 1177.63 201.788 1177.63 226.795 1162.21 242.219 1162.15 242.28 1162.09 242.34 1162.02 242.4" stroke="#595959" stroke-width="10.6667" stroke-miterlimit="8" fill="none" fill-rule="evenodd"/><path d="M999.5 120C999.5 98.1848 1017.18 80.5 1039 80.5" stroke="#595959" stroke-width="10.6667" stroke-miterlimit="8" fill="none" fill-rule="evenodd"/><path d="M1094.5 120C1094.5 98.1848 1112.18 80.5 1134 80.5 1155.82 80.5 1173.5 98.1848 1173.5 120 1173.5 141.815 1155.82 159.5 1134 159.5 1133.68 159.5 1133.35 159.496 1133.03 159.488" stroke="#595959" stroke-width="10.6667" stroke-miterlimit="8" fill="none" fill-rule="evenodd"/></g></svg>