<svg width="324" height="324" xmlns="http://www.w3.org/2000/svg" xmlns:xlink="http://www.w3.org/1999/xlink" overflow="hidden"><defs><clipPath id="clip0"><rect x="478" y="198" width="324" height="324"/></clipPath></defs><g clip-path="url(#clip0)" transform="translate(-478 -198)"><path d="M640 242C705.17 242 758 294.83 758 360 758 425.17 705.17 478 640 478 574.83 478 522 425.17 522 360 522 294.83 574.83 242 640 242Z" stroke="#000000" stroke-width="20" stroke-miterlimit="8" fill="none" fill-rule="evenodd"/><path d="M640 492 621.057 438.733 658.943 438.733ZM733.341 453.329 682.276 429.065 709.065 402.276ZM772 360 718.733 378.943 718.733 341.057ZM733.341 266.659 709.065 317.724 682.276 290.935ZM640 228 658.943 281.267 621.057 281.267ZM546.671 266.659 597.724 290.935 570.935 317.724ZM508 360 561.267 341.057 561.267 378.943ZM546.671 453.329 570.935 402.276 597.724 429.065ZM640 294C676.451 294 706 323.549 706 360 706 396.451 676.451 426 640 426 603.549 426 574 396.451 574 360 574 323.549 603.549 294 640 294Z" stroke="#BFBFBF" stroke-width="20" stroke-miterlimit="8" fill="none" fill-rule="evenodd"/><path d="M621.957 386.821C618.391 386.821 615.499 383.93 615.499 380.363 615.499 376.796 618.391 373.905 621.957 373.905 625.524 373.905 628.416 376.796 628.416 380.363 628.416 383.93 625.524 386.821 621.957 386.821M621.957 347.095C618.391 347.095 615.499 344.204 615.499 340.637 615.499 337.07 618.391 334.179 621.957 334.179 625.524 334.179 628.416 337.07 628.416 340.637 628.416 344.204 625.524 347.095 621.957 347.095" stroke="#767171" stroke-width="13.3333" stroke-miterlimit="8" fill="none" fill-rule="evenodd"/><path d="M667.539 394.104C682.925 371.702 682.925 349.325 667.539 326.974" stroke="#767171" stroke-width="13.3333" stroke-miterlimit="8" fill="none" fill-rule="evenodd"/><path d="M640.5 422.5C606.258 422.5 578.5 394.742 578.5 360.5 578.5 326.258 606.258 298.5 640.5 298.5 674.742 298.5 702.5 326.258 702.5 360.5 702.5 394.742 674.742 422.5 640.5 422.5Z" stroke="#767171" stroke-width="13.3333" stroke-miterlimit="8" fill="none" fill-rule="evenodd"/></g></svg>