<svg width="299" height="333" xmlns="http://www.w3.org/2000/svg" xmlns:xlink="http://www.w3.org/1999/xlink" overflow="hidden"><defs><clipPath id="clip0"><rect x="490" y="191" width="299" height="333"/></clipPath></defs><g clip-path="url(#clip0)" transform="translate(-490 -191)"><path d="M566.355 469.076C506.169 428.403 490.35 346.641 531.023 286.455 540.51 272.416 552.62 260.343 566.687 250.899" stroke="#767171" stroke-width="33.3333" stroke-miterlimit="8" fill="none" fill-rule="evenodd"/><path d="M639.5 285C680.645 285 714 318.579 714 360 714 401.421 680.645 435 639.5 435 598.355 435 565 401.421 565 360 565 318.579 598.355 285 639.5 285Z" stroke="#AFABAB" stroke-width="40" stroke-miterlimit="8" fill="none" fill-rule="evenodd"/><path d="M771.347 366.983C767.545 439.524 705.657 495.249 633.116 491.447 613.336 490.41 594.044 484.919 576.683 475.384" stroke="#767171" stroke-width="33.3333" stroke-miterlimit="8" fill="none" fill-rule="evenodd"/><path d="M576.778 244.763C640.477 209.847 720.42 233.179 755.337 296.878 764.84 314.215 770.313 333.472 771.347 353.216" stroke="#767171" stroke-width="33.3333" stroke-miterlimit="8" fill="none" fill-rule="evenodd"/><path d="M640.5 229.54 572.5 214.5" stroke="#767171" stroke-width="33.3333" stroke-miterlimit="8" fill="none" fill-rule="evenodd"/><path d="M0 0 67.8001 15.4398" stroke="#767171" stroke-width="33.3333" stroke-miterlimit="8" fill="none" fill-rule="evenodd" transform="matrix(-1 0 0 1 640.3 491.5)"/></g></svg>