<svg width="265" height="264" xmlns="http://www.w3.org/2000/svg" xmlns:xlink="http://www.w3.org/1999/xlink" overflow="hidden"><defs><clipPath id="clip0"><rect x="336" y="31" width="265" height="264"/></clipPath></defs><g clip-path="url(#clip0)" transform="translate(-336 -31)"><path d="M376.5 163.5C376.5 112.138 417.914 70.5001 469 70.5001 520.086 70.5001 561.5 112.138 561.5 163.5 561.5 214.863 520.086 256.5 469 256.5 417.914 256.5 376.5 214.863 376.5 163.5Z" stroke="#595959" stroke-width="53.3333" stroke-miterlimit="8" fill="none" fill-rule="evenodd"/><rect x="451" y="32" width="36" height="49" fill="#595959"/><rect x="454" y="246" width="36" height="49" fill="#595959"/><path d="M575.079 244.679 549.624 270.135 514.975 235.487 540.431 210.031Z" fill="#595959" fill-rule="evenodd"/><path d="M423.816 90.8274 398.36 116.283 363.712 81.635 389.167 56.1792Z" fill="#595959" fill-rule="evenodd"/><path d="M399.096 211.031 424.552 236.487 389.904 271.135 364.448 245.679Z" fill="#595959" fill-rule="evenodd"/><path d="M549.623 58.0556 575.079 83.5115 540.431 118.16 514.975 92.7039Z" fill="#595959" fill-rule="evenodd"/><rect x="551" y="149" width="49" height="36" fill="#595959"/><rect x="337" y="149" width="49" height="36" fill="#595959"/><path d="M403 163.5C403 127.325 432.325 98 468.5 98 504.675 98 534 127.325 534 163.5 534 199.675 504.675 229 468.5 229 432.325 229 403 199.675 403 163.5Z" stroke="#BFBFBF" stroke-width="20" stroke-miterlimit="8" fill="none" fill-rule="evenodd"/></g></svg>