<svg width="284" height="284" xmlns="http://www.w3.org/2000/svg" xmlns:xlink="http://www.w3.org/1999/xlink" overflow="hidden"><defs><clipPath id="clip0"><rect x="498" y="218" width="284" height="284"/></clipPath></defs><g clip-path="url(#clip0)" transform="translate(-498 -218)"><path d="M508 360C508 287.098 567.098 228 640 228 712.902 228 772 287.098 772 360 772 432.902 712.902 492 640 492 567.098 492 508 432.902 508 360Z" stroke="#7F7F7F" stroke-width="20" stroke-miterlimit="8" fill="none" fill-rule="evenodd"/><path d="M616.484 269.485C632.413 264.457 649.507 264.468 665.43 269.517L640.905 346.857Z" fill="#3B3838" fill-rule="evenodd"/><path d="M548.369 382.957C543.454 366.992 543.586 349.899 548.748 334.012L625.912 359.085Z" fill="#3B3838" fill-rule="evenodd"/><path d="M731.631 336.128C736.546 352.092 736.414 369.185 731.252 385.072L654.088 360Z" fill="#3B3838" fill-rule="evenodd"/><path d="M664.406 450.314C648.441 455.229 631.348 455.097 615.461 449.935L640.533 372.771Z" fill="#3B3838" fill-rule="evenodd"/><path d="M662.644 294.661C683.646 301.366 700.145 317.757 706.987 338.714" stroke="#BFBFBF" stroke-width="46.6667" stroke-miterlimit="8" fill="none" fill-rule="evenodd"/><path d="M706.529 381.251C699.825 402.253 683.433 418.752 662.476 425.594" stroke="#BFBFBF" stroke-width="46.6667" stroke-miterlimit="8" fill="none" fill-rule="evenodd"/><path d="M617.76 423.969C596.758 417.264 580.259 400.873 573.418 379.916" stroke="#BFBFBF" stroke-width="46.6667" stroke-miterlimit="8" fill="none" fill-rule="evenodd"/><path d="M574.661 337.391C581.366 316.389 597.757 299.89 618.714 293.048" stroke="#BFBFBF" stroke-width="46.6667" stroke-miterlimit="8" fill="none" fill-rule="evenodd"/></g></svg>