<svg width="402" height="402" xmlns="http://www.w3.org/2000/svg" xmlns:xlink="http://www.w3.org/1999/xlink" overflow="hidden"><defs><clipPath id="clip0"><rect x="439" y="159" width="402" height="402"/></clipPath></defs><g clip-path="url(#clip0)" transform="translate(-439 -159)"><path d="M508 360C508 287.098 567.098 228 640 228 712.902 228 772 287.098 772 360 772 432.902 712.902 492 640 492 567.098 492 508 432.902 508 360Z" stroke="#AFABAB" stroke-width="20" stroke-miterlimit="8" fill="none" fill-rule="evenodd"/><path d="M560 360C560 315.817 595.817 280 640 280 684.183 280 720 315.817 720 360 720 404.183 684.183 440 640 440 595.817 440 560 404.183 560 360Z" fill="#7F7F7F" fill-rule="evenodd"/><path d="M487 360 612.953 332.953 640 207 667.047 332.953 793 360 667.047 387.047 640 513 612.953 387.047Z" stroke="#000000" stroke-width="20" stroke-miterlimit="8" fill="#D0CECE" fill-rule="evenodd"/></g></svg>