<svg width="285" height="284" xmlns="http://www.w3.org/2000/svg" xmlns:xlink="http://www.w3.org/1999/xlink" overflow="hidden"><defs><clipPath id="clip0"><rect x="635" y="26" width="285" height="284"/></clipPath></defs><g clip-path="url(#clip0)" transform="translate(-635 -26)"><path d="M777.5 36C850.125 36 909 94.8746 909 167.5 909 240.125 850.125 299 777.5 299 704.875 299 646 240.125 646 167.5 646 94.8746 704.875 36 777.5 36Z" stroke="#7F7F7F" stroke-width="20" stroke-miterlimit="8" fill="none" fill-rule="evenodd"/><path d="M777 163C779.761 163 782 165.239 782 168 782 170.761 779.761 173 777 173 774.239 173 772 170.761 772 168 772 165.239 774.239 163 777 163Z" stroke="#262626" stroke-width="20" stroke-miterlimit="8" fill="none" fill-rule="evenodd"/><path d="M803.419 198.988C789.085 213.322 765.846 213.322 751.513 198.988" stroke="#262626" stroke-width="9.33333" stroke-miterlimit="8" fill="none" fill-rule="evenodd"/><path d="M821.378 220.029C797.126 244.281 757.806 244.281 733.554 220.029" stroke="#262626" stroke-width="9.33333" stroke-miterlimit="8" fill="none" fill-rule="evenodd"/><path d="M840.663 241.271C805.76 276.174 749.171 276.174 714.268 241.271" stroke="#262626" stroke-width="9.33333" stroke-miterlimit="8" fill="none" fill-rule="evenodd"/><path d="M777 173C774.239 173 772 170.761 772 168 772 165.239 774.239 163 777 163 779.761 163 782 165.239 782 168 782 170.761 779.761 173 777 173Z" stroke="#262626" stroke-width="20" stroke-miterlimit="8" fill="none" fill-rule="evenodd"/><path d="M751.513 137.258C765.846 122.924 789.085 122.924 803.418 137.258" stroke="#262626" stroke-width="9.33333" stroke-miterlimit="8" fill="none" fill-rule="evenodd"/><path d="M733.554 116.217C757.806 91.965 797.126 91.965 821.378 116.217" stroke="#262626" stroke-width="9.33333" stroke-miterlimit="8" fill="none" fill-rule="evenodd"/><path d="M714.268 94.9754C749.171 60.0722 805.76 60.0722 840.664 94.9754" stroke="#262626" stroke-width="9.33333" stroke-miterlimit="8" fill="none" fill-rule="evenodd"/></g></svg>